<svg xmlns="http://www.w3.org/2000/svg" viewBox="0 0 64 64" role="img" aria-label="Gemini">
  <defs>
    <linearGradient id="gemini-main" x1="0" y1="0" x2="1" y2="1">
      <stop offset="0" stop-color="#4f87ff"/>
      <stop offset=".34" stop-color="#8d68e8"/>
      <stop offset=".68" stop-color="#ef6c91"/>
      <stop offset="1" stop-color="#f1b64c"/>
    </linearGradient>
    <linearGradient id="gemini-leaf" x1="0" y1="1" x2="1" y2="0">
      <stop offset="0" stop-color="#39b98a"/>
      <stop offset="1" stop-color="#74d55d"/>
    </linearGradient>
  </defs>
  <path d="M32 5c2.8 14.2 10.8 22.2 25 25-14.2 2.8-22.2 10.8-25 25-2.8-14.2-10.8-22.2-25-25C21.2 27.2 29.2 19.2 32 5Z" fill="url(#gemini-main)"/>
  <path d="M32 30c1.3 7.1 5.9 11.7 13 13-7.1 1.3-11.7 5.9-13 13-1.3-7.1-5.9-11.7-13-13 7.1-1.3 11.7-5.9 13-13Z" fill="url(#gemini-leaf)" opacity=".76"/>
</svg>
