<svg xmlns="http://www.w3.org/2000/svg" width="612" height="248" viewBox="0 0 612 248" version="1.1">
	<path id="xiang-canyan-wordmark" d="M 267.667 14.667 C 266.218 16.116, 267.131 20.003, 269.615 22.955 L 272.230 26.063 270.994 41.073 C 269.709 56.678, 269.996 61.837, 272.412 66.492 C 274.048 69.646, 273.587 71.616, 270.873 73.068 C 269.309 73.905, 268.815 73.645, 268.024 71.563 C 266.699 68.078, 258.309 62.917, 254.500 63.243 C 251.662 63.486, 251.496 63.744, 251.423 68 C 251.348 72.318, 248.481 78.730, 238.434 97.045 C 237.063 99.545, 235.672 103.249, 235.342 105.277 C 234.870 108.187, 235.103 109.102, 236.447 109.618 C 238.710 110.486, 247.210 106.434, 250.645 102.849 C 252.146 101.282, 253.863 100, 254.460 100 C 255.057 100, 256.386 101.562, 257.414 103.470 L 259.283 106.940 256.406 110.720 C 250.151 118.938, 238.834 129.883, 236.275 130.191 C 234.860 130.361, 233.224 131.400, 232.641 132.500 C 232.058 133.600, 230.747 135.757, 229.728 137.294 C 228.709 138.830, 228.016 141.305, 228.188 142.794 C 228.453 145.096, 229.142 145.635, 232.798 146.402 C 236.489 147.177, 237.509 147, 240.008 145.152 C 241.609 143.969, 243.178 143, 243.494 143 C 243.811 143, 247.629 140.056, 251.978 136.457 C 263.362 127.039, 284.924 102.651, 288.175 95.516 C 288.903 93.918, 293.436 88.597, 298.249 83.691 C 305.678 76.120, 307 74.274, 307 71.475 C 307 69.032, 306.215 67.517, 303.969 65.627 C 300.741 62.911, 295.294 61.015, 290.693 61.006 C 288.018 61, 287.900 60.803, 288.193 56.852 C 288.374 54.407, 289.116 52.401, 290 51.968 C 290.825 51.563, 295.054 50.257, 299.398 49.066 C 311.199 45.830, 316.435 43.063, 316.805 39.866 C 317.024 37.975, 316.352 36.636, 314.420 35.116 C 310.700 32.190, 299.681 32.120, 296 35 C 294.625 36.076, 292.938 36.966, 292.250 36.978 C 290.765 37.004, 290.563 33.388, 292 32.500 C 292.550 32.160, 293 29.914, 293 27.509 C 293 23.718, 292.568 22.828, 289.750 20.818 C 284.206 16.864, 276.989 14, 272.567 14 C 270.239 14, 268.033 14.300, 267.667 14.667 M 76.250 34.031 C 72.783 35.425, 73.189 40.286, 77 43 C 78.650 44.175, 80 46.021, 80 47.101 C 80 48.182, 78.823 51.414, 77.384 54.283 C 73.538 61.950, 62.352 80.385, 58.416 85.542 C 56.537 88.003, 55 90.394, 55 90.854 C 55 91.314, 54.079 92.524, 52.953 93.543 C 51.677 94.697, 51.017 96.358, 51.203 97.948 C 51.439 99.978, 52.113 100.554, 54.500 100.763 C 56.952 100.978, 59.144 99.657, 66.500 93.535 C 77.503 84.377, 84.650 79.455, 88.129 78.639 C 89.576 78.300, 92.951 76.056, 95.629 73.653 C 98.308 71.249, 102.383 68.325, 104.684 67.155 C 106.985 65.984, 109.573 64.021, 110.434 62.791 C 112.358 60.044, 112.457 54.029, 110.649 49.702 C 106.493 39.756, 85.641 30.256, 76.250 34.031 M 356.887 38.636 C 353.844 42.302, 327.054 57.159, 317.750 60.339 C 314.883 61.319, 315.751 64.649, 319.728 67.927 C 322.927 70.564, 324.266 71, 329.169 71 C 332.311 71, 335.162 70.547, 335.504 69.993 C 336.218 68.839, 340.417 66.588, 343.811 65.540 L 346.122 64.827 343.579 69.844 C 340.086 76.736, 338.186 77.904, 332.253 76.799 C 329.639 76.312, 323.569 75.653, 318.765 75.335 C 311.263 74.838, 309.942 74.987, 309.403 76.391 C 308.492 78.767, 310.511 80.659, 314.680 81.335 C 319.322 82.089, 329 86.948, 329 88.526 C 329 89.811, 325.002 95.081, 321.132 98.900 C 318.662 101.337, 318.537 101.288, 316.001 96.880 C 315.488 95.989, 312.560 94.242, 309.493 92.997 C 305.106 91.217, 303.234 90.929, 300.709 91.649 C 298.221 92.358, 297.427 93.189, 297.177 95.346 C 297 96.877, 297.562 99.209, 298.427 100.529 C 300.457 103.627, 300.722 125.160, 298.750 126.785 C 296.134 128.942, 279.355 133.355, 273.500 133.427 C 267.790 133.496, 267.485 133.627, 267.196 136.125 C 266.947 138.270, 267.791 139.411, 271.813 142.363 C 275.735 145.241, 276.855 146.721, 277.330 149.644 C 277.657 151.661, 279.108 154.547, 280.555 156.057 C 284.708 160.392, 283.577 162.114, 274.489 165.301 C 260.876 170.075, 257.763 171, 255.310 171 C 252.539 171, 251.523 172.965, 252.429 176.575 C 252.886 178.394, 254.413 179.737, 257.651 181.170 C 262.967 183.521, 264.577 183.341, 275.913 179.123 C 280.541 177.402, 284.564 176.231, 284.855 176.521 C 285.984 177.651, 265.944 196.184, 257 202.280 C 255.625 203.218, 252.136 205.608, 249.247 207.591 C 246.359 209.575, 241.859 211.962, 239.247 212.896 C 235.336 214.296, 234.500 215.027, 234.500 217.047 C 234.500 219.485, 234.555 219.498, 243.316 219.244 C 250.403 219.038, 253.655 218.386, 259.898 215.919 C 264.169 214.231, 269.877 211.099, 272.582 208.958 C 275.287 206.818, 279.131 204.171, 281.124 203.077 C 283.118 201.983, 285.969 199.605, 287.461 197.794 C 290.335 194.304, 296.799 189, 298.178 189 C 299.164 189, 299.235 194.462, 298.357 202.855 L 297.715 209.004 293.607 208.752 C 289.621 208.507, 289.491 208.599, 289.180 211.844 C 289.001 213.705, 289.481 215.922, 290.262 216.844 C 292.113 219.030, 295 225.407, 295 227.311 C 295 228.141, 296.810 231.111, 299.023 233.910 C 303.327 239.355, 306.071 240.242, 310.861 237.735 C 315.053 235.542, 316.152 230.137, 316.095 212 C 316.067 202.925, 315.758 193.588, 315.408 191.250 C 314.913 187.939, 315.088 187, 316.200 187 C 316.984 187, 321.648 189.915, 326.563 193.478 C 331.478 197.040, 337.296 201.203, 339.491 202.728 C 341.686 204.252, 347.482 208.313, 352.370 211.750 C 357.259 215.188, 361.692 218, 362.222 218 C 362.751 218, 364.280 218.862, 365.620 219.916 C 370.229 223.542, 378.297 225.347, 386.769 224.649 C 391.021 224.298, 399.487 223.801, 405.581 223.545 C 417.913 223.026, 422 221.954, 422 219.237 C 422 217.583, 414.109 210, 412.388 210 C 411.986 210, 410.947 209.396, 410.079 208.658 C 407.242 206.246, 381.424 197, 377.527 197 C 376.672 197, 375.191 196.603, 374.236 196.117 C 373.281 195.631, 371.375 194.760, 370 194.181 C 368.625 193.603, 365.305 192.200, 362.623 191.065 C 359.940 189.929, 357.325 189, 356.811 189 C 356.297 189, 353.429 187.875, 350.438 186.500 C 337.437 180.523, 325.693 175.230, 320.250 172.895 C 316.656 171.352, 316 170.627, 316 168.191 C 316 164.521, 318.129 162.738, 325 160.654 C 332.084 158.505, 345.247 156, 349.453 156 C 357.113 156, 360.861 148.173, 355.148 144.106 C 348.816 139.597, 335.692 139.095, 330.519 143.164 C 325.738 146.925, 328.024 143.700, 335.696 135.862 C 339.930 131.538, 343.910 128, 344.541 128 C 346.457 128, 349 124.497, 349 121.858 C 349 120.442, 347.818 118.263, 346.250 116.788 C 344.159 114.823, 341.988 114.033, 337.194 113.497 C 332.141 112.931, 330.543 113.104, 329.145 114.369 C 327.741 115.639, 319.925 119, 318.374 119 C 317.541 119, 318.071 111.736, 319.035 109.934 C 319.605 108.870, 320.899 108, 321.913 108 C 322.926 108, 324.276 107.372, 324.913 106.605 C 325.550 105.837, 327.696 104.904, 329.682 104.532 C 333.680 103.782, 337.133 101.879, 341.184 98.194 C 343.370 96.205, 344.510 95.873, 347.333 96.403 C 349.239 96.760, 351.349 97.716, 352.022 98.526 C 352.695 99.337, 353.752 100.010, 354.372 100.022 C 354.993 100.034, 356.625 100.910, 358 101.968 C 360.001 103.508, 360.251 104.142, 359.250 105.146 C 358.563 105.836, 358 107.183, 358 108.141 C 358 110.700, 359.709 111.396, 367.614 112.057 C 373.271 112.529, 376.400 113.506, 382.895 116.826 C 391.209 121.075, 395.578 121.871, 400.435 120.025 C 402.733 119.151, 403 118.510, 403 113.863 C 403 105.121, 398.020 98.783, 384.412 90.207 C 381.614 88.443, 378.230 87, 376.892 87 C 373.883 87, 359.809 83.174, 358.657 82.043 C 357.584 80.988, 359.186 78.015, 364.375 71.431 C 366.644 68.552, 369.850 64.307, 371.500 61.998 C 373.150 59.689, 376.188 56.457, 378.250 54.816 C 381.422 52.292, 382 51.236, 382 47.967 C 382 44.776, 381.433 43.674, 378.750 41.649 C 372.720 37.098, 359.657 35.298, 356.887 38.636 M 458.250 69.110 C 456.362 71.059, 456.745 74.737, 459.181 78.031 L 461.363 80.982 459.219 93.241 C 456.289 109.994, 453.257 122.986, 451.892 124.631 C 451.267 125.384, 450.312 126, 449.771 126 C 449.229 126, 443.547 128.629, 437.143 131.843 C 423.635 138.622, 418.844 140.406, 414 140.461 C 410.902 140.495, 410.462 140.829, 410.173 143.364 C 409.543 148.874, 419.153 156, 427.213 156 C 430.515 156, 432.643 155.192, 436.429 152.500 C 439.137 150.575, 441.948 149, 442.676 149 C 443.610 149, 444 150.576, 444 154.345 C 444 160.298, 445.871 162.973, 450.079 163.036 C 451.410 163.056, 453.822 164.153, 455.439 165.474 C 457.975 167.547, 458.232 168.193, 457.316 170.188 C 455.497 174.148, 442.798 185.525, 439.500 186.149 C 438.031 186.427, 437.500 187.320, 437.500 189.514 C 437.500 191.987, 437.948 192.552, 440.103 192.802 C 443.732 193.224, 457.942 189.363, 460.164 187.351 C 461.203 186.411, 462 184.326, 462 182.548 L 462 179.406 467.859 179.557 C 471.082 179.640, 474.153 179.976, 474.683 180.304 C 475.213 180.632, 476.241 182.700, 476.967 184.901 C 478.850 190.607, 491.982 203, 496.144 203 C 501.901 203, 503 201.626, 503 194.432 C 503 189.497, 502.403 186.756, 500.521 183.041 C 499.157 180.350, 497.124 177.857, 496.004 177.501 C 494.883 177.145, 493.322 175.312, 492.534 173.427 C 491.746 171.542, 490.398 170, 489.537 170 C 487.391 170, 481.028 165.770, 481.012 164.333 C 481.006 163.691, 481.900 161.066, 483 158.500 C 484.100 155.934, 485 152.521, 485 150.917 C 485 149.313, 485.464 148, 486.031 148 C 486.597 148, 488.464 149.598, 490.179 151.551 C 491.894 153.504, 494.558 155.754, 496.099 156.551 C 499.720 158.424, 506.718 158.396, 510.364 156.494 C 514.238 154.473, 516.254 154.571, 515.647 156.750 C 515.378 157.713, 514.858 162.005, 514.490 166.290 C 513.954 172.545, 514.135 174.557, 515.411 176.504 C 516.285 177.838, 517 180.082, 517 181.490 C 517 183.347, 517.737 184.330, 519.684 185.070 C 524.905 187.055, 526.378 186.049, 527.838 179.500 C 529.522 171.947, 530.732 163.673, 531.604 153.754 C 531.979 149.494, 532.794 145.586, 533.415 145.070 C 535.996 142.929, 546.278 138.042, 548.752 137.781 L 551.421 137.500 551.717 175.191 C 552.045 216.896, 552.453 220.264, 557.250 220.816 C 560.393 221.178, 560.731 222.535, 558.335 225.183 C 556.964 226.698, 556.831 227.861, 557.585 231.762 C 558.383 235.895, 558.817 236.500, 560.983 236.500 C 563.095 236.500, 563.572 235.902, 564.175 232.500 C 564.566 230.300, 564.911 226.452, 564.942 223.950 C 564.974 221.447, 565.407 218.972, 565.904 218.450 C 566.401 217.928, 567.078 204.900, 567.409 189.500 C 568.388 144.003, 569.082 131.177, 570.636 129.887 C 572.509 128.333, 583.444 126.078, 589.316 126.035 C 596.433 125.983, 598 124.802, 598 119.490 C 598 115.656, 597.625 114.859, 595.250 113.642 C 590.650 111.285, 575.384 107.865, 572.591 108.567 C 570.066 109.200, 570 109.091, 570 104.305 C 570 100.050, 569.554 98.960, 566.667 96.162 C 564.833 94.385, 561.683 92.475, 559.667 91.918 C 557.650 91.362, 556 90.529, 556 90.068 C 556 88.466, 560.535 86.330, 566.391 85.173 C 569.632 84.534, 572.894 83.503, 573.641 82.883 C 574.389 82.263, 575 80.089, 575 78.052 C 575 75.399, 574.294 73.685, 572.510 72.010 C 570.451 70.075, 568.649 69.591, 562.089 69.211 C 555.271 68.817, 553.757 69.037, 551.314 70.777 C 544.470 75.650, 521.321 85.766, 516 86.209 C 513.031 86.456, 512.500 86.872, 512.500 88.952 C 512.500 90.712, 513.728 92.267, 516.843 94.452 C 520.976 97.352, 521.637 97.493, 530.423 97.357 C 537.579 97.247, 540.570 96.750, 543.706 95.150 C 547.812 93.055, 549 93.192, 549 95.759 C 549 96.543, 549.890 98.316, 550.978 99.699 C 552.701 101.890, 552.879 103.200, 552.355 109.857 C 552.024 114.061, 551.168 118.124, 550.453 118.888 C 549.190 120.236, 540.794 123.684, 536.250 124.720 C 534.176 125.193, 534 124.884, 534 120.772 C 534 116.496, 531.932 113, 529.403 113 C 528.887 113, 526.766 111.846, 524.691 110.436 C 522.615 109.026, 519.923 108.013, 518.709 108.186 C 516.173 108.546, 516.084 110.161, 517.868 123.379 C 518.516 128.181, 518.577 131.922, 518.024 132.956 C 517.524 133.889, 512.354 136.968, 506.535 139.797 C 498.227 143.836, 495.302 144.810, 492.913 144.333 C 489.968 143.744, 489.893 143.593, 490.552 139.612 C 490.926 137.350, 491.597 134.803, 492.044 133.951 C 492.490 133.099, 493.168 129.499, 493.551 125.951 C 494.009 121.705, 494.915 118.767, 496.200 117.354 C 497.412 116.023, 498.029 114.154, 497.826 112.431 C 497.536 109.958, 496.731 109.398, 490.500 107.334 C 486.650 106.059, 482.375 105.125, 481 105.258 C 478.835 105.468, 478.460 106.051, 478.199 109.608 C 477.968 112.771, 477.336 114.018, 475.451 115.026 C 474.105 115.747, 472.684 116.017, 472.294 115.627 C 471.552 114.886, 479.644 89.203, 481.140 87.550 C 482.535 86.009, 482.123 77.621, 480.542 75.364 C 477.367 70.831, 461.026 66.247, 458.250 69.110 M 271.500 84.045 C 269.850 85.089, 266.895 86.823, 264.933 87.899 C 261.421 89.824, 258.339 92.726, 259.107 93.385 C 259.323 93.570, 261.375 94.009, 263.666 94.359 C 267.749 94.984, 267.903 94.900, 271.425 90.102 C 273.402 87.410, 275.689 84.949, 276.509 84.635 C 277.329 84.320, 278 83.599, 278 83.031 C 278 81.444, 274.828 81.939, 271.500 84.045 M 145 87.519 C 121.239 92.563, 105.432 97.276, 84 105.708 C 70.967 110.836, 70.854 110.908, 71.191 113.825 C 71.492 116.428, 71.737 116.521, 80.236 117.283 C 87.349 117.920, 89.539 117.773, 92.019 116.490 C 93.695 115.624, 98.089 113.982, 101.783 112.842 C 105.477 111.702, 110.300 109.954, 112.500 108.957 C 114.700 107.960, 119.200 106.380, 122.500 105.447 C 125.800 104.514, 129.400 103.396, 130.500 102.963 C 134.487 101.392, 149.643 98.998, 155.595 98.999 C 160.380 99, 162.072 99.422, 163.466 100.962 C 165.080 102.746, 165.134 103.677, 164.057 111.212 C 163.405 115.770, 162.472 121.075, 161.984 123 C 161.495 124.925, 160.129 130.325, 158.947 135 C 153.414 156.892, 145.174 177.546, 140.858 180.338 C 138.910 181.598, 137.630 181.672, 133.500 180.761 C 130.750 180.155, 126.259 179.623, 123.520 179.579 C 119.426 179.514, 118.475 179.831, 118.175 181.360 C 117.941 182.554, 119.098 184.281, 121.406 186.183 C 123.382 187.812, 125 189.958, 125 190.950 C 125 191.943, 125.675 193.315, 126.500 194 C 127.325 194.685, 128 195.651, 128 196.147 C 128 196.642, 129.575 199.338, 131.500 202.136 C 133.425 204.935, 135 207.587, 135 208.031 C 135 208.474, 136.516 209.774, 138.368 210.918 C 141.962 213.140, 151.352 213.858, 152.500 212 C 152.840 211.450, 154.123 211, 155.351 211 C 159.047 211, 165.347 203.368, 169.799 193.500 C 174.948 182.087, 178 173.310, 178 169.920 C 178 168.462, 178.900 166.126, 180 164.727 C 181.100 163.329, 182 161.446, 182 160.543 C 182 159.640, 182.631 157.680, 183.403 156.188 C 184.175 154.695, 185.357 150.675, 186.030 147.255 C 186.703 143.834, 187.871 140.522, 188.627 139.895 C 189.382 139.268, 190 138, 190 137.078 C 190 136.155, 190.414 134.972, 190.919 134.450 C 191.425 133.927, 192.327 130.819, 192.924 127.542 C 193.764 122.929, 194.715 120.940, 197.138 118.727 C 200.105 116.017, 200.237 115.584, 199.694 110.326 C 198.689 100.589, 193.081 94.659, 178.125 87.520 C 168.894 83.114, 165.756 83.114, 145 87.519 M 14.667 111.667 C 13.441 112.893, 13.982 116.740, 15.566 118.055 C 16.427 118.770, 17.805 120.655, 18.627 122.246 C 20.292 125.466, 24.886 150.389, 25.954 162 C 26.334 166.125, 27.455 171.049, 28.447 172.942 C 30.736 177.311, 39.629 186.757, 43.187 188.597 C 47.352 190.750, 51.712 190.387, 53.359 187.750 C 55.653 184.076, 56.214 174.857, 54.448 169.863 C 53.599 167.463, 52.644 161.900, 52.325 157.500 C 51.866 151.176, 51.278 148.976, 49.520 147 C 48.297 145.625, 46.513 141.575, 45.555 138 C 43.752 131.273, 39.712 123.950, 35.769 120.263 C 31.490 116.261, 21.667 111, 18.475 111 C 16.747 111, 15.033 111.300, 14.667 111.667 M 109.388 120.111 C 104.155 124.298, 95.593 129.886, 89.500 133.091 C 85.705 135.087, 84.358 136.417, 83.910 138.610 L 83.319 141.500 82.160 138.685 C 81.522 137.137, 81 135.510, 81 135.070 C 81 134.630, 80.057 133.071, 78.905 131.607 C 74.577 126.104, 63.748 122.887, 62.296 126.672 C 61.937 127.607, 62.562 129.923, 63.713 131.922 C 65.323 134.720, 65.926 138.117, 66.479 147.500 C 67.227 160.214, 69.109 166.285, 74.158 172.282 C 76.936 175.581, 83.089 177.001, 85.596 174.920 C 87.011 173.746, 87.122 171.678, 86.501 158.033 L 85.794 142.483 91.917 142.400 C 95.284 142.354, 99.155 141.720, 100.518 140.990 C 101.881 140.261, 103.271 139.938, 103.606 140.273 C 104.336 141.002, 93.252 154.689, 91.337 155.424 C 90.498 155.746, 90 157.596, 90 160.392 C 90 163.725, 90.652 165.621, 92.589 167.923 C 95.278 171.120, 97.303 171.630, 101.203 170.097 C 102.466 169.600, 107.550 167.957, 112.500 166.446 C 117.450 164.935, 122.287 163.021, 123.250 162.194 C 125.403 160.344, 125.556 154.707, 123.500 153 C 121.303 151.176, 121.598 150.184, 125.750 145.434 C 135.944 133.772, 137.667 129.984, 135.026 125.048 C 133.599 122.382, 127.996 119.379, 122.082 118.111 C 114.629 116.513, 113.702 116.659, 109.388 120.111 M 469.569 132.266 C 466.154 134.207, 465.213 135.590, 462.392 142.823 C 459.186 151.041, 459.169 151.169, 461.073 153.073 C 464.216 156.216, 466.410 155.471, 468.941 150.404 C 470.706 146.869, 475 132.674, 475 130.373 C 475 129.551, 473.312 130.140, 469.569 132.266 M 317.750 133.080 C 315.926 134.143, 315.233 140, 316.932 140 C 318.060 140, 322 134.632, 322 133.096 C 322 131.737, 320.067 131.730, 317.750 133.080 M 291.500 142.914 C 286.396 144.709, 284.879 147.190, 288.500 147.821 C 289.600 148.013, 291.887 149.784, 293.582 151.756 C 298.154 157.076, 300 155.860, 300 147.531 C 300 140.054, 299.854 139.975, 291.500 142.914" stroke="none" fill="currentColor" fill-rule="evenodd"/>
</svg>