<svg xmlns="http://www.w3.org/2000/svg" viewBox="0 0 620 520" fill="none">
  <g stroke="#47796f" stroke-width="1.5" opacity=".6">
    <path d="M82 96h452v326H82z"/>
    <path d="M82 206h176v216M362 96v126h172M258 96v110"/>
    <path d="M120 134h100v34H120zM120 252h98v120h-98zM406 268h90v104h-90z"/>
    <circle cx="310" cy="276" r="46"/>
    <circle cx="310" cy="276" r="19"/>
    <circle cx="434" cy="166" r="30"/>
    <circle cx="172" cy="314" r="26"/>
    <path d="M258 206c56 0 104 46 104 104M362 222c-56 0-104 46-104 104"/>
    <path d="M382 310h24M214 314h44M310 230v-24M310 322v28"/>
  </g>
  <path d="M103 399c93-47 134-108 207-123 86-18 132 32 213-82" stroke="#e8785f" stroke-width="1.8" stroke-dasharray="8 14" opacity=".76"/>
  <g stroke="#e8785f" stroke-width="1.5" opacity=".72">
    <path d="M296 262h28M310 248v28"/>
    <path d="M420 152h28M434 138v28"/>
  </g>
</svg>
