<svg xmlns="http://www.w3.org/2000/svg" viewBox="0 0 620 520" fill="none">
  <g stroke="#326f66" stroke-width="1.5" opacity=".62">
    <path d="M86 437c-42-86-5-189 72-237 64-40 142-29 192-88 58-69 183-49 208 42 27 99-73 142-91 225-17 80-95 122-172 94-74-27-163 58-209-36Z"/>
    <path d="M119 416c-34-68-5-151 59-188 58-34 121-25 169-75 48-50 142-31 165 37 27 77-53 118-72 183-22 71-82 93-145 71-66-23-142 39-176-28Z"/>
    <path d="M155 394c-23-53 2-113 51-140 52-29 99-21 137-59 39-39 103-20 123 29 27 63-39 94-58 143-21 55-64 68-113 51-55-19-115 29-140-24Z"/>
    <path d="M198 367c-15-36 5-73 38-91 43-23 73-15 102-42 27-25 67-12 82 20 22 46-27 66-44 103-17 37-45 43-79 31-40-14-83 15-99-21Z"/>
  </g>
  <path d="M73 451c109-40 149-125 241-172 78-40 137-70 231-138" stroke="#e8785f" stroke-width="2" stroke-dasharray="7 13" opacity=".78"/>
  <g stroke="#e8785f" stroke-width="1.6" opacity=".78">
    <path d="M309 264v28M295 278h28"/>
    <path d="M531 128v28M517 142h28"/>
  </g>
</svg>
