<svg xmlns="http://www.w3.org/2000/svg" viewBox="0 0 620 520" fill="none">
  <g stroke="#326f66" stroke-width="1.5" opacity=".62">
    <path d="M52 151c89-66 163-58 225 24 58 77 134 88 291 8"/>
    <path d="M43 196c96-68 179-60 243 23 57 74 135 82 290-2"/>
    <path d="M39 243c104-71 195-63 262 21 56 71 135 75 279-13"/>
    <path d="M44 292c111-73 207-65 278 18 57 67 135 69 261-22"/>
    <path d="M58 341c116-73 216-64 291 16 57 61 132 62 225-23"/>
    <path d="M96 399h408M128 369h344M159 339h282"/>
    <path d="M127 399l52-60 52 60 52-60 52 60 52-60 52 60 52-60"/>
  </g>
  <path d="M64 317c125-21 218-5 291 49 62 46 119 48 205 10" stroke="#e8785f" stroke-width="1.9" stroke-dasharray="8 14" opacity=".78"/>
  <g stroke="#e8785f" stroke-width="1.5" opacity=".74">
    <path d="M344 351v28M330 365h28"/>
    <path d="M548 362v28M534 376h28"/>
  </g>
</svg>
