<svg xmlns="http://www.w3.org/2000/svg" viewBox="0 0 620 520" fill="none">
  <g stroke="#377a68" stroke-width="1.6" opacity=".62">
    <path d="M115 420c67-88 120-166 174-294"/>
    <path d="M193 297c-69 2-108-26-123-83 65-10 112 17 123 83Z"/>
    <path d="M239 214c-47-30-63-72-45-124 55 21 75 67 45 124Z"/>
    <path d="M154 361c-55 20-101 8-134-36 50-30 102-16 134 36Z"/>
    <path d="M275 151c39-46 82-60 130-39-30 51-78 66-130 39Z"/>
    <path d="M302 400h248M324 366h226M347 332h203M370 298h180"/>
    <path d="M322 400l118-136M375 400l118-136M428 400l118-136"/>
  </g>
  <path d="M84 437c89-51 149-110 205-191 47-69 89-117 176-147" stroke="#e8785f" stroke-width="1.8" stroke-dasharray="7 13" opacity=".78"/>
  <g stroke="#e8785f" stroke-width="1.5" opacity=".74">
    <path d="M276 232v28M262 246h28"/>
    <path d="M455 86v28M441 100h28"/>
  </g>
</svg>
