<svg xmlns="http://www.w3.org/2000/svg" viewBox="0 0 900 1100" fill="none">
  <g stroke="#3f7e70" stroke-width="1.4" opacity=".46">
    <path d="M66 262C135 172 263 126 392 145c126 18 172 95 283 86 64-5 118-36 168-78"/>
    <path d="M42 308c89-99 218-141 348-119 121 21 170 90 278 84 81-5 140-46 197-100"/>
    <path d="M24 356c105-104 237-143 368-116 111 23 164 84 266 82 96-2 161-52 222-116"/>
    <path d="M18 405c121-107 255-140 382-108 101 25 157 77 252 79 109 2 180-59 240-133"/>
    <path d="M24 455c135-107 271-132 391-96 91 28 151 71 239 75 117 6 192-61 246-145"/>
    <path d="M102 729c85-69 190-92 289-58 83 29 121 88 206 99 74 10 145-17 202-68"/>
    <path d="M78 776c99-77 215-99 321-59 76 28 116 82 194 96 86 16 166-15 227-73"/>
    <path d="M61 825c113-84 240-104 351-59 68 28 110 76 181 93 97 23 186-13 249-79"/>
    <path d="M53 876c125-89 261-105 375-55 61 27 104 70 168 88 106 30 203-12 264-86"/>
  </g>
  <path d="M109 924c133-184 233-261 372-326 109-51 184-117 292-278" stroke="#e8785f" stroke-width="1.8" stroke-dasharray="8 16" opacity=".62"/>
  <g stroke="#e8785f" stroke-width="1.4" opacity=".7">
    <path d="M477 584v28M463 598h28"/>
    <path d="M769 307v28M755 321h28"/>
    <path d="M105 910v28M91 924h28"/>
  </g>
</svg>
